<mxfile host="app.diagrams.net" modified="2023-11-30T20:44:51.229Z" agent="Mozilla/5.0 (Windows NT 10.0; Win64; x64) AppleWebKit/537.36 (KHTML, like Gecko) Chrome/119.0.0.0 Safari/537.36" etag="R0v8iGEqQQXRlEIX3I28" version="22.1.5" type="device">
  <diagram name="Страница — 1" id="c4-qh4CFtlBc_zxU3LsE">
    <mxGraphModel dx="916" dy="494" grid="1" gridSize="10" guides="1" tooltips="1" connect="1" arrows="1" fold="1" page="1" pageScale="1" pageWidth="827" pageHeight="1169" math="0" shadow="0">
      <root>
        <mxCell id="0" />
        <mxCell id="1" parent="0" />
        <mxCell id="ii49FbBwGmYHpSNB1aUn-5" style="edgeStyle=orthogonalEdgeStyle;rounded=0;orthogonalLoop=1;jettySize=auto;html=1;entryX=0.5;entryY=0;entryDx=0;entryDy=0;" edge="1" parent="1" source="ii49FbBwGmYHpSNB1aUn-2" target="ii49FbBwGmYHpSNB1aUn-3">
          <mxGeometry relative="1" as="geometry" />
        </mxCell>
        <mxCell id="ii49FbBwGmYHpSNB1aUn-6" style="edgeStyle=orthogonalEdgeStyle;rounded=0;orthogonalLoop=1;jettySize=auto;html=1;entryX=0.5;entryY=0;entryDx=0;entryDy=0;" edge="1" parent="1" source="ii49FbBwGmYHpSNB1aUn-2" target="ii49FbBwGmYHpSNB1aUn-4">
          <mxGeometry relative="1" as="geometry" />
        </mxCell>
        <mxCell id="ii49FbBwGmYHpSNB1aUn-2" value="Главное окно" style="whiteSpace=wrap;html=1;align=center;" vertex="1" parent="1">
          <mxGeometry x="350" y="20" width="100" height="40" as="geometry" />
        </mxCell>
        <mxCell id="ii49FbBwGmYHpSNB1aUn-11" style="edgeStyle=orthogonalEdgeStyle;rounded=0;orthogonalLoop=1;jettySize=auto;html=1;entryX=0.5;entryY=0;entryDx=0;entryDy=0;" edge="1" parent="1" source="ii49FbBwGmYHpSNB1aUn-3" target="ii49FbBwGmYHpSNB1aUn-9">
          <mxGeometry relative="1" as="geometry" />
        </mxCell>
        <mxCell id="ii49FbBwGmYHpSNB1aUn-3" value="Список научных сотрудников" style="rounded=1;arcSize=10;whiteSpace=wrap;html=1;align=center;" vertex="1" parent="1">
          <mxGeometry x="460" y="80" width="100" height="40" as="geometry" />
        </mxCell>
        <mxCell id="ii49FbBwGmYHpSNB1aUn-17" style="edgeStyle=orthogonalEdgeStyle;rounded=0;orthogonalLoop=1;jettySize=auto;html=1;entryX=0.5;entryY=0;entryDx=0;entryDy=0;" edge="1" parent="1" source="ii49FbBwGmYHpSNB1aUn-4" target="ii49FbBwGmYHpSNB1aUn-16">
          <mxGeometry relative="1" as="geometry" />
        </mxCell>
        <mxCell id="ii49FbBwGmYHpSNB1aUn-4" value="Авторизация" style="rounded=1;arcSize=10;whiteSpace=wrap;html=1;align=center;" vertex="1" parent="1">
          <mxGeometry x="240" y="70" width="100" height="40" as="geometry" />
        </mxCell>
        <mxCell id="ii49FbBwGmYHpSNB1aUn-8" value="Содержание статьи" style="rounded=1;arcSize=10;whiteSpace=wrap;html=1;align=center;" vertex="1" parent="1">
          <mxGeometry x="460" y="240" width="100" height="40" as="geometry" />
        </mxCell>
        <mxCell id="ii49FbBwGmYHpSNB1aUn-12" style="edgeStyle=orthogonalEdgeStyle;rounded=0;orthogonalLoop=1;jettySize=auto;html=1;entryX=0.5;entryY=0;entryDx=0;entryDy=0;" edge="1" parent="1" source="ii49FbBwGmYHpSNB1aUn-9" target="ii49FbBwGmYHpSNB1aUn-8">
          <mxGeometry relative="1" as="geometry" />
        </mxCell>
        <mxCell id="ii49FbBwGmYHpSNB1aUn-9" value="Список статей сотрудника" style="rounded=1;arcSize=10;whiteSpace=wrap;html=1;align=center;" vertex="1" parent="1">
          <mxGeometry x="460" y="160" width="100" height="40" as="geometry" />
        </mxCell>
        <mxCell id="ii49FbBwGmYHpSNB1aUn-35" style="edgeStyle=orthogonalEdgeStyle;rounded=0;orthogonalLoop=1;jettySize=auto;html=1;entryX=0.5;entryY=0;entryDx=0;entryDy=0;" edge="1" parent="1" source="ii49FbBwGmYHpSNB1aUn-10" target="ii49FbBwGmYHpSNB1aUn-33">
          <mxGeometry relative="1" as="geometry" />
        </mxCell>
        <mxCell id="ii49FbBwGmYHpSNB1aUn-10" value="Список статей" style="rounded=1;arcSize=10;whiteSpace=wrap;html=1;align=center;" vertex="1" parent="1">
          <mxGeometry x="145" y="340" width="100" height="40" as="geometry" />
        </mxCell>
        <mxCell id="ii49FbBwGmYHpSNB1aUn-13" value="в роли пользователя" style="text;html=1;strokeColor=none;fillColor=none;align=center;verticalAlign=middle;whiteSpace=wrap;rounded=0;" vertex="1" parent="1">
          <mxGeometry x="470" width="60" height="30" as="geometry" />
        </mxCell>
        <mxCell id="ii49FbBwGmYHpSNB1aUn-14" value="в роли администратора" style="text;html=1;strokeColor=none;fillColor=none;align=center;verticalAlign=middle;whiteSpace=wrap;rounded=0;" vertex="1" parent="1">
          <mxGeometry x="260" width="60" height="30" as="geometry" />
        </mxCell>
        <mxCell id="ii49FbBwGmYHpSNB1aUn-20" style="edgeStyle=orthogonalEdgeStyle;rounded=0;orthogonalLoop=1;jettySize=auto;html=1;entryX=0.5;entryY=0;entryDx=0;entryDy=0;exitX=0;exitY=0.5;exitDx=0;exitDy=0;" edge="1" parent="1" source="ii49FbBwGmYHpSNB1aUn-16" target="ii49FbBwGmYHpSNB1aUn-19">
          <mxGeometry relative="1" as="geometry" />
        </mxCell>
        <mxCell id="ii49FbBwGmYHpSNB1aUn-30" style="edgeStyle=orthogonalEdgeStyle;rounded=0;orthogonalLoop=1;jettySize=auto;html=1;exitX=1;exitY=0.5;exitDx=0;exitDy=0;" edge="1" parent="1" source="ii49FbBwGmYHpSNB1aUn-16">
          <mxGeometry relative="1" as="geometry">
            <mxPoint x="380" y="250" as="targetPoint" />
          </mxGeometry>
        </mxCell>
        <mxCell id="ii49FbBwGmYHpSNB1aUn-16" value="Список научных сотрудников" style="rounded=1;whiteSpace=wrap;html=1;" vertex="1" parent="1">
          <mxGeometry x="240" y="170" width="100" height="40" as="geometry" />
        </mxCell>
        <mxCell id="ii49FbBwGmYHpSNB1aUn-32" style="edgeStyle=orthogonalEdgeStyle;rounded=0;orthogonalLoop=1;jettySize=auto;html=1;entryX=0.5;entryY=0;entryDx=0;entryDy=0;" edge="1" parent="1" source="ii49FbBwGmYHpSNB1aUn-19" target="ii49FbBwGmYHpSNB1aUn-10">
          <mxGeometry relative="1" as="geometry" />
        </mxCell>
        <mxCell id="ii49FbBwGmYHpSNB1aUn-19" value="Окно для добавления нового научного сотрудника" style="whiteSpace=wrap;html=1;align=center;" vertex="1" parent="1">
          <mxGeometry x="130" y="250" width="130" height="50" as="geometry" />
        </mxCell>
        <mxCell id="ii49FbBwGmYHpSNB1aUn-22" value="кнопка &quot;Добавить&quot;" style="text;html=1;strokeColor=none;fillColor=none;align=center;verticalAlign=middle;whiteSpace=wrap;rounded=0;" vertex="1" parent="1">
          <mxGeometry x="170" y="150" width="60" height="30" as="geometry" />
        </mxCell>
        <mxCell id="ii49FbBwGmYHpSNB1aUn-23" value="кнопка &quot;Удалить&quot;" style="text;html=1;strokeColor=none;fillColor=none;align=center;verticalAlign=middle;whiteSpace=wrap;rounded=0;" vertex="1" parent="1">
          <mxGeometry x="350" y="150" width="60" height="30" as="geometry" />
        </mxCell>
        <mxCell id="ii49FbBwGmYHpSNB1aUn-24" value="" style="endArrow=none;dashed=1;html=1;dashPattern=1 3;strokeWidth=2;rounded=0;" edge="1" parent="1">
          <mxGeometry width="50" height="50" relative="1" as="geometry">
            <mxPoint x="320" y="300" as="sourcePoint" />
            <mxPoint x="320" y="250" as="targetPoint" />
          </mxGeometry>
        </mxCell>
        <mxCell id="ii49FbBwGmYHpSNB1aUn-25" value="" style="endArrow=none;dashed=1;html=1;dashPattern=1 3;strokeWidth=2;rounded=0;" edge="1" parent="1">
          <mxGeometry width="50" height="50" relative="1" as="geometry">
            <mxPoint x="320" y="300" as="sourcePoint" />
            <mxPoint x="440" y="300" as="targetPoint" />
          </mxGeometry>
        </mxCell>
        <mxCell id="ii49FbBwGmYHpSNB1aUn-26" value="" style="endArrow=none;dashed=1;html=1;dashPattern=1 3;strokeWidth=2;rounded=0;" edge="1" parent="1">
          <mxGeometry width="50" height="50" relative="1" as="geometry">
            <mxPoint x="320" y="250" as="sourcePoint" />
            <mxPoint x="440" y="250" as="targetPoint" />
          </mxGeometry>
        </mxCell>
        <mxCell id="ii49FbBwGmYHpSNB1aUn-27" value="" style="endArrow=none;dashed=1;html=1;dashPattern=1 3;strokeWidth=2;rounded=0;" edge="1" parent="1">
          <mxGeometry width="50" height="50" relative="1" as="geometry">
            <mxPoint x="440" y="300" as="sourcePoint" />
            <mxPoint x="440" y="250" as="targetPoint" />
          </mxGeometry>
        </mxCell>
        <mxCell id="ii49FbBwGmYHpSNB1aUn-28" value="Выбранная строка будет удалена" style="text;html=1;strokeColor=none;fillColor=none;align=center;verticalAlign=middle;whiteSpace=wrap;rounded=0;" vertex="1" parent="1">
          <mxGeometry x="320" y="260" width="120" height="30" as="geometry" />
        </mxCell>
        <mxCell id="ii49FbBwGmYHpSNB1aUn-31" style="edgeStyle=orthogonalEdgeStyle;rounded=0;orthogonalLoop=1;jettySize=auto;html=1;exitX=0.5;exitY=1;exitDx=0;exitDy=0;" edge="1" parent="1" source="ii49FbBwGmYHpSNB1aUn-22" target="ii49FbBwGmYHpSNB1aUn-22">
          <mxGeometry relative="1" as="geometry" />
        </mxCell>
        <mxCell id="ii49FbBwGmYHpSNB1aUn-33" value="Окно для добавления наименования статьи и добавления её содержания" style="rounded=1;whiteSpace=wrap;html=1;" vertex="1" parent="1">
          <mxGeometry x="111.25" y="420" width="167.5" height="50" as="geometry" />
        </mxCell>
      </root>
    </mxGraphModel>
  </diagram>
</mxfile>
